HIERARCHY
ROOT Hips
{
	OFFSET 0.000000 103.266502 0.000000
	CHANNELS 6 Xposition Yposition Zposition Xrotation Yrotation Zrotation 
	JOINT Spine
	{
		OFFSET -0.002400 12.777504 0.315300
		CHANNELS 3 Xrotation Yrotation Zrotation
		JOINT Spine1
		{
			OFFSET -0.002067 5.816869 0.032633
			CHANNELS 3 Xrotation Yrotation Zrotation
			JOINT Spine1_split
			{
				OFFSET -0.002067 5.816869 0.032633
				CHANNELS 3 Xrotation Yrotation Zrotation
				JOINT Spine2
				{
					OFFSET -0.002067 5.816869 0.032633
					CHANNELS 3 Xrotation Yrotation Zrotation
					JOINT Neck
					{
						OFFSET -0.003700 21.199493 -0.826900
						CHANNELS 3 Xrotation Yrotation Zrotation
						JOINT Head
						{
							OFFSET 0.000000 20.442200 4.834800
							CHANNELS 3 Xrotation Yrotation Zrotation
							JOINT HeadTop_End
							{
								OFFSET 0.000000 34.668396 4.968400
								CHANNELS 3 Xrotation Yrotation Zrotation
								End Site
								{
									OFFSET 0.000000 0.000000 0.000000
								}
							}
						}
					}
					JOINT LeftShoulder
					{
						OFFSET 3.288150 8.794197 -1.372250
						CHANNELS 3 Xrotation Yrotation Zrotation
						JOINT LeftShoulder_split
						{
							OFFSET 3.288150 8.794197 -1.372250
							CHANNELS 3 Xrotation Yrotation Zrotation
							JOINT LeftArm
							{
								OFFSET 11.953299 -2.279007 -0.146200
								CHANNELS 3 Xrotation Yrotation Zrotation
								JOINT LeftForeArm
								{
									OFFSET 18.448900 0.000000 0.000000
									CHANNELS 3 Xrotation Yrotation Zrotation
									JOINT LeftHand
									{
										OFFSET 29.527798 0.000000 0.000000
										CHANNELS 3 Xrotation Yrotation Zrotation
										JOINT LeftHandThumb1
										{
											OFFSET 10.739754 -2.369614 9.225399
											CHANNELS 3 Xrotation Yrotation Zrotation
											JOINT LeftHandThumb2
											{
												OFFSET 4.926170 -2.844131 2.844125
												CHANNELS 3 Xrotation Yrotation Zrotation
												JOINT LeftHandThumb3
												{
													OFFSET 4.614891 -2.664413 2.664409
													CHANNELS 3 Xrotation Yrotation Zrotation
													JOINT LeftHandThumb4
													{
														OFFSET 4.432465 -2.559082 2.559083
														CHANNELS 3 Xrotation Yrotation Zrotation
														End Site
														{
															OFFSET 0.000000 0.000000 0.000000
														}
													}
												}
											}
										}
										JOINT LeftHandIndex1
										{
											OFFSET 26.467674 0.187653 6.405298
											CHANNELS 3 Xrotation Yrotation Zrotation
											JOINT LeftHandIndex2
											{
												OFFSET 8.792900 0.000000 0.000000
												CHANNELS 3 Xrotation Yrotation Zrotation
												JOINT LeftHandIndex3
												{
													OFFSET 10.075203 0.000000 0.000000
													CHANNELS 3 Xrotation Yrotation Zrotation
													End Site
													{
														OFFSET 0.000000 0.000000 0.000000
													}
												}
											}
										}
										JOINT LeftHandMiddle1
										{
											OFFSET 25.764404 0.000000 0.000000
											CHANNELS 3 Xrotation Yrotation Zrotation
											JOINT LeftHandMiddle2
											{
												OFFSET 9.393974 0.000000 0.000000
												CHANNELS 3 Xrotation Yrotation Zrotation
												JOINT LeftHandMiddle3
												{
													OFFSET 10.771950 0.000000 0.000000
													CHANNELS 3 Xrotation Yrotation Zrotation
													End Site
													{
														OFFSET 0.000000 0.000000 0.000000
													}
												}
											}
										}
										JOINT LeftHandRing1
										{
											OFFSET 24.660927 0.144547 -6.225808
											CHANNELS 3 Xrotation Yrotation Zrotation
											JOINT LeftHandRing2
											{
												OFFSET 9.393799 0.000000 0.000000
												CHANNELS 3 Xrotation Yrotation Zrotation
												JOINT LeftHandRing3
												{
													OFFSET 9.928497 0.000000 0.000000
													CHANNELS 3 Xrotation Yrotation Zrotation
													End Site
													{
														OFFSET 0.000000 0.000000 0.000000
													}
												}
											}
										}
										JOINT LeftHandPinky1
										{
											OFFSET 23.655350 0.125290 -12.815412
											CHANNELS 3 Xrotation Yrotation Zrotation
											JOINT LeftHandPinky2
											{
												OFFSET 8.425102 0.000000 0.000000
												CHANNELS 3 Xrotation Yrotation Zrotation
												JOINT LeftHandPinky3
												{
													OFFSET 8.147003 0.000000 0.000000
													CHANNELS 3 Xrotation Yrotation Zrotation
													End Site
													{
														OFFSET 0.000000 0.000000 0.000000
													}
												}
											}
										}
									}
								}
							}
						}
					}
					JOINT RightShoulder
					{
						OFFSET -3.249400 8.794197 -1.372250
						CHANNELS 3 Xrotation Yrotation Zrotation
						JOINT RightShoulder_split
						{
							OFFSET -3.249400 8.794197 -1.372250
							CHANNELS 3 Xrotation Yrotation Zrotation
							JOINT RightArm
							{
								OFFSET -11.953299 -2.279007 -0.146200
								CHANNELS 3 Xrotation Yrotation Zrotation
								JOINT RightForeArm
								{
									OFFSET -18.448900 0.000000 0.000000
									CHANNELS 3 Xrotation Yrotation Zrotation
									JOINT RightHand
									{
										OFFSET -29.527802 0.000000 0.000000
										CHANNELS 3 Xrotation Yrotation Zrotation
										JOINT RightHandThumb1
										{
											OFFSET -10.739754 -2.369614 9.225399
											CHANNELS 3 Xrotation Yrotation Zrotation
											JOINT RightHandThumb2
											{
												OFFSET -4.926170 -2.844131 2.844125
												CHANNELS 3 Xrotation Yrotation Zrotation
												JOINT RightHandThumb3
												{
													OFFSET -4.614891 -2.664413 2.664409
													CHANNELS 3 Xrotation Yrotation Zrotation
													JOINT RightHandThumb4
													{
														OFFSET -4.432465 -2.559082 2.559083
														CHANNELS 3 Xrotation Yrotation Zrotation
														End Site
														{
															OFFSET 0.000000 0.000000 0.000000
														}
													}
												}
											}
										}
										JOINT RightHandIndex1
										{
											OFFSET -26.467674 0.187653 6.405298
											CHANNELS 3 Xrotation Yrotation Zrotation
											JOINT RightHandIndex2
											{
												OFFSET -8.792900 0.000000 0.000000
												CHANNELS 3 Xrotation Yrotation Zrotation
												JOINT RightHandIndex3
												{
													OFFSET -10.075203 0.000000 0.000000
													CHANNELS 3 Xrotation Yrotation Zrotation
													End Site
													{
														OFFSET 0.000000 0.000000 0.000000
													}
												}
											}
										}
										JOINT RightHandMiddle1
										{
											OFFSET -25.764404 0.000000 0.000000
											CHANNELS 3 Xrotation Yrotation Zrotation
											JOINT RightHandMiddle2
											{
												OFFSET -9.393974 0.000000 0.000000
												CHANNELS 3 Xrotation Yrotation Zrotation
												JOINT RightHandMiddle3
												{
													OFFSET -10.771950 0.000000 0.000000
													CHANNELS 3 Xrotation Yrotation Zrotation
													End Site
													{
														OFFSET 0.000000 0.000000 0.000000
													}
												}
											}
										}
										JOINT RightHandRing1
										{
											OFFSET -24.660927 0.144547 -6.225808
											CHANNELS 3 Xrotation Yrotation Zrotation
											JOINT RightHandRing2
											{
												OFFSET -9.393799 0.000000 0.000000
												CHANNELS 3 Xrotation Yrotation Zrotation
												JOINT RightHandRing3
												{
													OFFSET -9.928497 0.000000 0.000000
													CHANNELS 3 Xrotation Yrotation Zrotation
													End Site
													{
														OFFSET 0.000000 0.000000 0.000000
													}
												}
											}
										}
										JOINT RightHandPinky1
										{
											OFFSET -23.655350 0.125290 -12.815412
											CHANNELS 3 Xrotation Yrotation Zrotation
											JOINT RightHandPinky2
											{
												OFFSET -8.425102 0.000000 0.000000
												CHANNELS 3 Xrotation Yrotation Zrotation
												JOINT RightHandPinky3
												{
													OFFSET -8.147003 0.000000 0.000000
													CHANNELS 3 Xrotation Yrotation Zrotation
													End Site
													{
														OFFSET 0.000000 0.000000 0.000000
													}
												}
											}
										}
									}
								}
							}
						}
					}
				}
			}
		}
	}
	JOINT LeftUpLeg
	{
		OFFSET 11.394100 -6.187798 -0.413800
		CHANNELS 3 Xrotation Yrotation Zrotation
		JOINT LeftLeg
		{
			OFFSET 0.430247 -32.302673 3.732800
			CHANNELS 3 Xrotation Yrotation Zrotation
			JOINT LeftFoot
			{
				OFFSET -0.430247 -48.264931 -6.423300
				CHANNELS 3 Xrotation Yrotation Zrotation
				JOINT LeftToeBase
				{
					OFFSET 4.230900 -16.068199 23.438400
					CHANNELS 3 Xrotation Yrotation Zrotation
					JOINT LeftToe_End
					{
						OFFSET 4.510700 0.695400 19.974600
						CHANNELS 3 Xrotation Yrotation Zrotation
						End Site
						{
							OFFSET 0.000000 0.000000 0.000000
						}
					}
				}
			}
		}
	}
	JOINT RightUpLeg
	{
		OFFSET -11.333700 -6.187798 -0.413800
		CHANNELS 3 Xrotation Yrotation Zrotation
		JOINT RightLeg
		{
			OFFSET -0.430392 -32.302628 3.733000
			CHANNELS 3 Xrotation Yrotation Zrotation
			JOINT RightFoot
			{
				OFFSET 0.430392 -48.264973 -6.423500
				CHANNELS 3 Xrotation Yrotation Zrotation
				JOINT RightToeBase
				{
					OFFSET -4.230900 -16.068199 23.438400
					CHANNELS 3 Xrotation Yrotation Zrotation
					JOINT RightToe_End
					{
						OFFSET -4.510700 0.695400 19.974600
						CHANNELS 3 Xrotation Yrotation Zrotation
						End Site
						{
							OFFSET 0.000000 0.000000 0.000000
						}
					}
				}
			}
		}
	}
}
MOTION
Frames: 5
Frame Time: 0.016667
9.902536 100.018547 13.726280 -1.303161 6.057536 -5.384631 9.995940 -1.447663 2.815212 1.871314 -1.420407 1.481033 0.000000 0.000000 0.000000 -3.085456 -1.618651 0.047467 -2.263183 -2.413852 6.433473 -4.853450 1.032562 -5.132382 -0.000000 0.000000 0.000000 1.744050 -3.421885 -0.743977 0.000000 0.000000 0.000000 -7.039695 -12.744835 -76.200001 9.887314 -11.719662 -4.534057 1.706383 -0.532272 7.848834 -4.356456 11.023683 11.798670 5.431345 10.003918 0.349291 2.355746 8.701278 3.488063 0.000002 -0.000000 -0.000002 2.289869 -1.111365 -15.774143 -0.017001 0.156536 -19.489081 0.000000 0.000001 -0.000000 -0.324412 0.423827 -19.903231 0.047037 0.327322 -24.651814 -0.000002 0.000001 -0.000001 -1.103097 2.349911 -19.788667 -0.026226 0.169237 -29.078301 0.000000 0.000000 0.000004 -3.158372 2.690860 -30.313387 0.023803 0.128489 -31.162731 -0.000001 -0.000000 -0.000005 2.245579 4.208255 6.197044 0.000000 0.000000 0.000000 0.519971 4.376571 72.028819 11.172625 15.288351 2.172148 -7.832649 -0.659885 -5.101852 -0.466444 -9.625973 -6.004439 7.286157 -11.588854 1.091612 1.069328 -8.364377 -4.888917 -0.000002 0.000001 -0.000000 2.690310 -4.660459 9.914406 -0.045368 -0.188963 19.171733 -0.000002 -0.000000 -0.000002 -1.689184 -5.560291 14.804572 0.093472 -0.624790 27.014824 0.000001 -0.000001 -0.000000 -4.593409 -8.836031 12.400059 -0.024344 -0.323707 32.805877 -0.000001 -0.000000 0.000003 -6.446324 -8.951899 24.517949 0.067056 -0.215933 34.229076 -0.000000 0.000000 0.000000 0.730149 10.602974 9.080175 17.025006 -7.190573 -0.394653 -17.733601 2.266303 -0.993261 -0.000033 0.013876 -0.000003 0.000000 0.000000 -0.000000 -34.564627 -6.771083 -2.568886 32.571167 -0.025094 1.146309 1.966496 0.721834 7.375680 2.226798 -0.483390 -0.382523 0.000000 -0.000000 -0.000000 
9.883507 99.957024 14.580921 -1.174907 6.138908 -5.531949 10.185885 -1.506316 2.715238 1.658269 -1.547290 1.654123 0.000000 0.000000 0.000000 -3.099211 -1.728067 0.284328 -2.452574 -2.344112 6.184122 -4.954938 1.081390 -5.347819 0.000000 -0.000000 0.000000 1.747730 -3.049442 -1.011632 0.000000 0.000000 0.000000 -6.924676 -13.420950 -75.877856 9.745417 -12.188609 -4.775191 2.092403 -0.946458 8.152632 -4.383291 11.106641 11.775332 5.357294 9.945695 0.408975 2.400805 8.693752 3.424679 -0.000000 0.000001 -0.000001 2.245793 -1.355902 -16.178059 -0.017982 0.152855 -19.607417 -0.000001 -0.000001 -0.000000 -0.299596 0.156411 -20.277027 0.045362 0.314823 -24.655767 -0.000002 -0.000001 -0.000003 -1.047563 1.972709 -20.300115 -0.026421 0.162933 -29.050997 0.000000 -0.000000 0.000001 -3.136084 2.284605 -30.597994 0.022758 0.123702 -31.167232 -0.000003 -0.000000 -0.000001 2.286456 4.046476 5.957244 0.000000 0.000000 0.000000 0.577122 4.140635 72.193529 11.311819 15.036764 2.556849 -7.641447 -0.666287 -5.228109 -0.468195 -9.956643 -5.963560 7.202584 -11.575612 0.986461 1.041525 -8.110844 -4.736249 0.000000 -0.000002 0.000000 2.686116 -4.470810 10.325775 -0.045360 -0.188980 19.198528 -0.000001 0.000000 0.000001 -1.600190 -5.334338 15.148407 0.090089 -0.605977 26.848425 -0.000000 -0.000001 -0.000001 -4.387618 -8.479945 12.961561 -0.024760 -0.313822 32.544922 -0.000001 0.000000 0.000000 -6.273534 -8.522929 24.848116 0.066313 -0.215092 34.010777 0.000000 0.000001 -0.000001 1.548888 10.509134 9.210680 16.424018 -7.071930 -0.380485 -18.082104 2.333904 -1.169137 -0.052556 -0.020433 0.045005 -0.000000 0.000000 -0.000000 -33.389694 -7.001341 -2.110820 28.290915 1.089540 1.150184 0.756445 0.636128 7.291916 2.364055 -0.968600 -0.548126 -0.000000 0.000000 -0.000001 
9.835574 99.890244 15.452819 -1.031352 6.267837 -5.629371 10.275177 -1.579449 2.650711 1.530881 -1.655980 1.713172 0.000000 0.000000 0.000000 -3.029678 -1.822409 0.405165 -2.777378 -2.362638 6.163047 -5.001022 1.132729 -5.650765 -0.000000 0.000000 0.000000 1.734723 -2.975679 -1.007657 0.000000 0.000000 0.000000 -6.950065 -13.745417 -75.686849 9.739461 -12.702265 -4.881119 2.520971 -1.552544 8.466072 -4.410163 11.189408 11.752204 5.283376 9.887555 0.468338 2.445794 8.686159 3.361416 0.000002 0.000001 -0.000000 2.198445 -1.599435 -16.581457 -0.018979 0.149173 -19.725603 0.000000 0.000001 -0.000000 -0.278366 -0.110837 -20.650203 0.043779 0.302362 -24.659701 -0.000003 -0.000003 -0.000006 -0.999211 1.595602 -20.811907 -0.026627 0.156635 -29.023639 0.000002 -0.000001 0.000002 -3.117942 1.878826 -30.880368 0.021732 0.118991 -31.171761 0.000002 0.000001 0.000001 2.341272 3.697851 6.000391 0.000000 0.000000 0.000000 0.577669 4.244791 72.228492 11.271327 14.839600 2.930563 -7.640644 -0.677181 -5.414272 -0.470746 -10.343835 -5.916560 7.104724 -11.559882 0.863592 1.008559 -7.813852 -4.557860 -0.000001 0.000000 -0.000002 2.674551 -4.239838 10.801741 -0.045329 -0.189001 19.226335 -0.000001 -0.000000 -0.000001 -1.500434 -5.066634 15.545437 0.086127 -0.583991 26.650855 -0.000000 0.000001 0.000002 -4.154881 -8.063594 13.611040 -0.025332 -0.302242 32.236765 -0.000001 0.000001 -0.000003 -6.074251 -8.029418 25.226228 0.065574 -0.214071 33.752930 -0.000000 -0.000000 0.000002 2.249803 10.347933 9.336180 15.986971 -6.928934 -0.369707 -18.381268 2.376782 -1.368505 -0.235825 -0.053464 0.107680 -0.000000 0.000001 0.000000 -32.143406 -7.227458 -1.704868 24.076075 2.162940 1.193850 -0.352000 0.697711 6.694276 2.816720 -1.971480 -0.307398 0.000001 0.000000 -0.000000 
9.774331 99.812973 16.358356 -0.829639 6.438476 -5.710431 10.400110 -1.657764 2.492543 1.273627 -1.788264 1.884379 0.000000 0.000000 0.000000 -3.086571 -1.937610 0.641754 -2.875666 -2.328186 5.878670 -5.125607 1.143905 -5.846473 -0.000000 -0.000000 -0.000000 1.738332 -2.704593 -1.152259 0.000000 0.000000 0.000000 -6.991226 -14.055440 -75.556400 10.158544 -13.161976 -4.994914 2.946553 -2.051347 8.656866 -4.437013 11.271962 11.729164 5.209701 9.829533 0.527481 2.490604 8.678535 3.298321 -0.000000 0.000000 -0.000003 2.147825 -1.841608 -16.983752 -0.019995 0.145578 -19.843352 0.000001 -0.000000 -0.000001 -0.260709 -0.377513 -21.022081 0.042237 0.289955 -24.663627 -0.000002 0.000000 -0.000003 -0.958143 1.219232 -21.323495 -0.026845 0.150377 -28.996294 0.000003 0.000000 0.000002 -3.103786 1.474207 -31.160624 0.020720 0.114284 -31.176340 0.000001 -0.000003 -0.000005 2.373054 3.408513 5.817492 0.000000 0.000000 0.000000 0.773666 4.237541 72.357392 11.267689 14.704970 3.217624 -7.714443 -0.569653 -5.519623 -0.474380 -10.781633 -5.864769 6.994176 -11.541837 0.724846 0.970880 -7.478076 -4.356672 0.000001 -0.000002 0.000000 2.654090 -3.972522 11.335045 -0.045300 -0.189012 19.255060 -0.000001 0.000000 -0.000000 -1.393031 -4.761475 15.989247 0.081606 -0.559096 26.425471 0.000001 -0.000001 0.000000 -3.902716 -7.591995 14.337115 -0.025859 -0.289222 31.886724 0.000000 0.000000 0.000001 -5.854048 -7.477579 25.644960 0.064657 -0.212900 33.459908 -0.000000 -0.000000 -0.000002 2.773043 10.191424 9.521357 15.729246 -6.954111 -0.425151 -18.661257 2.485661 -1.505274 -0.515029 -0.085365 0.180264 -0.000000 -0.000001 0.000000 -31.031711 -7.414297 -1.576982 20.171512 2.497146 1.480303 -1.277451 1.040341 6.217391 3.396837 -1.816951 -0.258558 -0.000000 0.000000 -0.000001 
9.678288 99.727722 17.339729 -0.710471 6.607849 -5.709378 10.739542 -1.732110 2.308064 0.862137 -1.917848 2.026344 0.000000 0.000000 0.000000 -3.297928 -2.045511 0.855363 -2.624586 -2.258870 5.439390 -5.463569 1.111055 -5.993754 -0.000000 -0.000000 -0.000000 1.733737 -2.483402 -1.370494 0.000000 0.000000 0.000000 -6.732600 -14.418225 -75.287864 10.256402 -13.631161 -5.186330 3.374018 -2.408092 8.984253 -4.463732 11.354200 11.706373 5.136367 9.771774 0.586238 2.535211 8.670876 3.235518 0.000003 0.000001 -0.000001 2.094222 -2.081839 -17.384177 -0.021054 0.141977 -19.960533 0.000003 0.000000 0.000001 -0.246525 -0.642986 -21.392262 0.040662 0.277546 -24.667534 0.000000 0.000000 -0.000003 -0.924290 0.844451 -21.834153 -0.027034 0.144100 -28.968950 -0.000002 0.000001 0.000004 -3.093416 1.071489 -31.438497 0.019692 0.109537 -31.180882 0.000003 -0.000002 -0.000003 2.386605 3.103078 5.622621 0.000000 0.000000 0.000000 1.342290 4.454615 72.514677 10.835918 14.812589 3.464583 -8.195790 -0.778703 -5.132919 -0.479209 -11.263733 -5.809235 6.872473 -11.521691 0.572362 0.928851 -7.108256 -4.135830 -0.000001 -0.000000 -0.000001 2.623413 -3.673791 11.918572 -0.045305 -0.189029 19.284559 0.000002 0.000001 0.000001 -1.280889 -4.422954 16.473383 0.076631 -0.531763 26.175734 -0.000001 -0.000000 -0.000003 -3.638246 -7.070342 15.128457 -0.026484 -0.274848 31.500225 -0.000001 0.000000 0.000005 -5.618312 -6.873676 26.097144 0.063451 -0.205194 33.136263 0.000000 -0.000000 -0.000001 3.480946 10.084251 9.665123 15.386084 -7.022003 -0.494805 -18.904946 2.605972 -1.662242 -0.869007 -0.116172 0.259666 -0.000000 0.000001 -0.000000 -30.051500 -7.588046 -1.373114 16.704310 2.689309 1.497592 -2.284855 1.447813 5.811131 3.434465 -2.331934 -0.245678 -0.000001 -0.000000 -0.000000 
